# xmcd CD database file
#
# Track frame offsets:
#	150
#	17872
#	33459
#	49643
#	65760
#	85318
#	104918
#	124051
#	136278
#	158423
#	177195
#	194255
#	212040
#	229137
#
# Disc length: 3262 seconds
#
# Revision: 0
# Processed by: cddbd v1.5.2PL0 Copyright (c) Steve Scherf et al.
# Submitted via: CDex 1.70beta2
#
DISCID=c40cbc0e
DTITLE=Mitchell Shadlow - One Of These Days
DYEAR=1997
DGENRE=Country
TTITLE0=Fraamed
TTITLE1=I Don't Have Far To Fall
TTITLE2=Cool Cow Cafe
TTITLE3=One Of These Days
TTITLE4=I Guess It's Goodbye
TTITLE5=One Perfect Day
TTITLE6=Can I See You Again?
TTITLE7=Mother Trucker
TTITLE8=Now That She's Gone
TTITLE9=Rains Came Down
TTITLE10=Big Dream
TTITLE11=Love Lies Bleeding
TTITLE12=Martina's Ballad
TTITLE13=Stockman
EXTD=YEAR: 1997
EXTT0=
EXTT1=
EXTT2=
EXTT3=
EXTT4=
EXTT5=
EXTT6=
EXTT7=
EXTT8=
EXTT9=
EXTT10=
EXTT11=
EXTT12=
EXTT13=
PLAYORDER=
